PathFileType	4	(X/Y/Z)	pose_F01_0-96.trc
DataRate	CameraRate	NumFrames	NumMarkers	Units	OrigDataRate	OrigDataStartFrame	OrigNumFrames
30	30	10	21	m	30	0	96
Frame#	Time	CHip			RHip			RKnee			RAnkle			RBigToe			RSmallToe			RHeel			LHip			LKnee			LAnkle			LBigToe			LSmallToe			LHeel			Neck			Nose			RShoulder			RElbow			RWrist			LShoulder			LElbow			LWrist			
		X1	Y1	Z1	X2	Y2	Z2	X3	Y3	Z3	X4	Y4	Z4	X5	Y5	Z5	X6	Y6	Z6	X7	Y7	Z7	X8	Y8	Z8	X9	Y9	Z9	X10	Y10	Z10	X11	Y11	Z11	X12	Y12	Z12	X13	Y13	Z13	X14	Y14	Z14	X15	Y15	Z15	X16	Y16	Z16	X17	Y17	Z17	X18	Y18	Z18	X19	Y19	Z19	X20	Y20	Z20	X21	Y21	Z21	
0	0.0	-0.23406131305014047	1.816497760689833	-0.5138361447002071	-0.2405563355539695	1.8242934584999324	-0.4525205271952881																-0.2099834804372345	1.8213886985143022	-0.5324939298242036	-0.19058556643831842	1.6803562957202085	-0.4826365615587896	-0.19535139705399826	1.5613394319858966	-0.4807619439365747				-0.22193198196561548	1.5364767111513402	-0.5229009879020886	-0.18693975899877663	1.5488185770766554	-0.4758327407997051	-1.847448236908942	1.8916110395861885	1.346715910987134	-0.23543993892447196	2.029995466921022	-0.49964296012346626	-0.23482109096371195	1.9610748854202988	-0.38745605287439183	-0.3107653617820176	1.849754080911573	-0.2697912489904401	-0.41960582040452715	1.9575300067156578	-0.9481215307410009	-1.6758381346638798	1.8906322370050443	1.0469108558652649	-0.1923422112517172	1.961270029624921	-0.49655235623223115	-0.25103775958499647	1.8518718769033287	-0.4264666165765425
1	0.03333333333333333	-0.23279988142395566	1.8170132830797274	-0.510626241705785	-0.23922108664055247	1.8238835874178452	-0.4493526621554003																-0.20967600072284043	1.821519099645074	-0.5325726211905573	-0.19096839713606698	1.6808451979157386	-0.4836544832455379	-0.19535139705399826	1.5613394319858966	-0.4807619439365747				-0.2223310516410245	1.5359413216600746	-0.5218853600792734	-0.18693975899877663	1.5488185770766554	-0.4758327407997051	-1.8474493687288716	1.8916364024813312	1.3467082920410047	-0.23547391623637473	2.029998884629506	-0.4995713809237154	-0.23281528421226802	1.962363886559553	-0.38964059295066145	-0.3032422310148718	1.8536235978912474	-0.279389394793743	-0.4068946461201003	1.9541086099380958	-0.9081766055076734	-1.6768461224340492	1.8905282762092193	1.0480587032214195	-0.19206423929475785	1.957116158591115	-0.5048687713240081	-0.2510571528296814	1.8577864460260376	-0.43611828429015953
2	0.06666666666666667	-0.23153844979777086	1.817528805469622	-0.5074163387113629	-0.23788583772713545	1.823473716335758	-0.4461847971155125																-0.20936852100844636	1.821649500775846	-0.5326513125569109	-0.19135122783381553	1.681334100111269	-0.48467240493228625	-0.19535139705399826	1.5613394319858966	-0.4807619439365747				-0.22273012131643355	1.535405932168809	-0.5208697322564583	-0.18693975899877663	1.5488185770766554	-0.4758327407997051	-1.8474505005488011	1.891661765376474	1.3467006730948754	-0.2355078935482775	2.0300023023379903	-0.4994998017239645	-0.2308094774608241	1.963652887698807	-0.39182513302693106	-0.29571910024772596	1.857493114870922	-0.28898754059704584	-0.3941834718356734	1.9506872131605337	-0.8682316802743458	-1.6778541102042186	1.8904243154133942	1.049206550577574	-0.19178626733779852	1.952962287557309	-0.513185186415785	-0.2510765460743663	1.8637010151487465	-0.44576995200377656
3	0.1	-0.23027701817158605	1.8180443278595164	-0.5042064357169409	-0.23655058881371843	1.8230638452536707	-0.4430169320756247																-0.20906104129405229	1.8217799019066179	-0.5327300039232645	-0.19173405853156408	1.681823002306799	-0.48569032661903455	-0.19535139705399826	1.5613394319858966	-0.4807619439365747				-0.22312919099184259	1.5348705426775433	-0.5198541044336431	-0.18693975899877663	1.5488185770766554	-0.4758327407997051	-1.8474516323687307	1.8916871282716168	1.346693054148746	-0.23554187086018027	2.0300057200464745	-0.49942822252421365	-0.22880367070938015	1.9649418888380612	-0.3940096731032007	-0.2881959694805801	1.8613626318505965	-0.2985856864003487	-0.38147229755124656	1.9472658163829717	-0.8282867550410182	-1.678862097974388	1.890320354617569	1.0503543979337286	-0.1915082953808392	1.948808416523503	-0.521501601507562	-0.2510959393190512	1.8696155842714555	-0.4554216197173936
4	0.13333333333333333	-0.22901558654540125	1.818559850249411	-0.5009965327225188	-0.2352153399003014	1.8226539741715835	-0.4398490670357369																-0.20875356157965821	1.8219103030373898	-0.5328086952896182	-0.19211688922931264	1.6823119045023291	-0.48670824830578285	-0.19535139705399826	1.5613394319858966	-0.4807619439365747				-0.22352826066725162	1.5343351531862777	-0.5188384766108279	-0.18693975899877663	1.5488185770766554	-0.4758327407997051	-1.8474527641886602	1.8917124911667595	1.3466854352026167	-0.23557584817208305	2.0300091377549587	-0.4993566433244628	-0.22679786395793622	1.9662308899773153	-0.3961942131794703	-0.28067283871343435	1.865232148830271	-0.3081838322036516	-0.3687611232668197	1.9438444196054097	-0.7883418298076907	-1.6798700857445574	1.890216393821744	1.0515022452898832	-0.19123032342387986	1.9446545454896969	-0.5298180165993389	-0.25111533256373614	1.8755301533941644	-0.4650732874310106
5	0.16666666666666666	-0.22775415491921644	1.8190753726393054	-0.4977866297280967	-0.2338800909868844	1.8222441030894962	-0.4366812019958491																-0.20844608186526414	1.8220407041681617	-0.5328873866559718	-0.1924997199270612	1.6828008066978595	-0.4877261699925312	-0.19535139705399826	1.5613394319858966	-0.4807619439365747				-0.22392733034266066	1.533799763695012	-0.5178228487880128	-0.18693975899877663	1.5488185770766554	-0.4758327407997051	-1.8474538960085898	1.8917378540619023	1.3466778162564874	-0.23560982548398582	2.030012555463443	-0.4992850641247119	-0.22479205720649229	1.9675198911165694	-0.3983787532557399	-0.27314970794628857	1.8691016658099455	-0.31778197800695446	-0.35604994898239284	1.9404230228278476	-0.7483969045743633	-1.6808780735147268	1.890112433025919	1.0526500926460378	-0.19095235146692052	1.9405006744558908	-0.5381344316911159	-0.25113472580842106	1.8814447225168733	-0.47472495514462765
6	0.2	-0.22649272329303163	1.8195908950292	-0.4945767267336746	-0.23254484207346737	1.821834232007409	-0.4335133369559613																-0.20813860215087007	1.8221711052989336	-0.5329660780223254	-0.19288255062480975	1.6832897088933896	-0.4887440916792795	-0.19535139705399826	1.5613394319858966	-0.4807619439365747				-0.2243264000180697	1.5332643742037464	-0.5168072209651976	-0.18693975899877663	1.5488185770766554	-0.4758327407997051	-1.8474550278285193	1.891763216957045	1.346670197310358	-0.2356438027958886	2.030015973171927	-0.49921348492496104	-0.22278625045504835	1.9688088922558236	-0.4005632933320095	-0.26562657717914273	1.87297118278962	-0.32738012381025733	-0.343338774697966	1.9370016260502856	-0.7084519793410357	-1.6818860612848963	1.8900084722300938	1.0537979400021924	-0.1906743795099612	1.9363468034220848	-0.5464508467828928	-0.251154119053106	1.8873592916395823	-0.4843766228582447
7	0.23333333333333334	-0.22523129166684683	1.8201064174190944	-0.4913668237392525	-0.23120959316005035	1.8214243609253218	-0.4303454719160735																-0.207831122436476	1.8223015064297055	-0.5330447693886791	-0.1932653813225583	1.6837786110889197	-0.4897620133660278	-0.19535139705399826	1.5613394319858966	-0.4807619439365747				-0.22472546969347873	1.5327289847124808	-0.5157915931423824	-0.18693975899877663	1.5488185770766554	-0.4758327407997051	-1.847456159648449	1.8917885798521878	1.3466625783642288	-0.23567778010779136	2.0300193908804114	-0.49914190572521017	-0.22078044370360442	1.9700978933950777	-0.40274783340827913	-0.2581034464119969	1.8768406997692946	-0.3369782696135602	-0.3306276004135391	1.9335802292727235	-0.668507054107708	-1.6828940490550657	1.8899045114342687	1.054945787358347	-0.19039640755300186	1.9321929323882787	-0.5547672618746697	-0.2511735122977909	1.8932738607622912	-0.4940282905718617
8	0.26666666666666666	-0.22396986004066202	1.820621939808989	-0.4881569207448304	-0.22987434424663333	1.8210144898432346	-0.42717760687618567																-0.20752364272208193	1.8224319075604773	-0.5331234607550327	-0.19364821202030685	1.68426751328445	-0.4907799350527762	-0.19535139705399826	1.5613394319858966	-0.4807619439365747				-0.22512453936888777	1.5321935952212151	-0.5147759653195673	-0.18693975899877663	1.5488185770766554	-0.4758327407997051	-1.8474572914683784	1.8918139427473306	1.3466549594180994	-0.23571175741969413	2.0300228085888956	-0.4990703265254593	-0.21877463695216048	1.9713868945343318	-0.40493237348454875	-0.2505803156448511	1.880710216748969	-0.34657641541686307	-0.31791642612911225	1.9301588324951615	-0.6285621288743806	-1.683902036825235	1.8898005506384437	1.0560936347145016	-0.19011843559604252	1.9280390613544727	-0.5630836769664467	-0.2511929055424758	1.8991884298850001	-0.5036799582854787
9	0.3	-0.22270842841447722	1.8211374621988834	-0.4849470177504083	-0.2285390953332163	1.8206046187611473	-0.42400974183629786																-0.20721616300768786	1.8225623086912492	-0.5332021521213863	-0.1940310427180554	1.6847564154799801	-0.4917978567395245	-0.19535139705399826	1.5613394319858966	-0.4807619439365747				-0.2255236090442968	1.5316582057299495	-0.5137603374967521	-0.18693975899877663	1.5488185770766554	-0.4758327407997051	-1.847458423288308	1.8918393056424734	1.34664734047197	-0.2357457347315969	2.03002622629738	-0.4989987473257084	-0.21676883020071655	1.972675895673586	-0.40711691356081836	-0.2430571848777053	1.8845797337286436	-0.35617456122016594	-0.3052052518446854	1.9267374357175995	-0.5886172036410531	-1.6849100245954045	1.8896965898426186	1.0572414820706562	-0.1898404636390832	1.9238851903206666	-0.5714000920582236	-0.2512122987871607	1.905102999007709	-0.5133316259990958
